<mxfile host="app.diagrams.net" agent="Mozilla/5.0 (Windows NT 10.0; Win64; x64) AppleWebKit/537.36 (KHTML, like Gecko) Chrome/131.0.0.0 Safari/537.36" version="24.9.2" pages="2">
  <diagram name="Страница — 1" id="tRpR0Kobc1mQKF8O6Xj2">
    <mxGraphModel dx="1793" dy="2134" grid="1" gridSize="10" guides="1" tooltips="1" connect="1" arrows="1" fold="1" page="1" pageScale="1" pageWidth="827" pageHeight="1169" math="0" shadow="0">
      <root>
        <mxCell id="0" />
        <mxCell id="1" parent="0" />
        <mxCell id="aTOD2q8e6nUc6o2Chz0G-34" style="edgeStyle=orthogonalEdgeStyle;rounded=0;orthogonalLoop=1;jettySize=auto;html=1;exitX=1;exitY=0.3333333333333333;exitDx=0;exitDy=0;exitPerimeter=0;entryX=0;entryY=0.5;entryDx=0;entryDy=0;curved=1;" parent="1" source="aTOD2q8e6nUc6o2Chz0G-1" target="aTOD2q8e6nUc6o2Chz0G-33" edge="1">
          <mxGeometry relative="1" as="geometry" />
        </mxCell>
        <mxCell id="aTOD2q8e6nUc6o2Chz0G-46" style="edgeStyle=orthogonalEdgeStyle;rounded=0;orthogonalLoop=1;jettySize=auto;html=1;exitX=1;exitY=0.3333333333333333;exitDx=0;exitDy=0;exitPerimeter=0;entryX=0;entryY=0.5;entryDx=0;entryDy=0;curved=1;" parent="1" source="aTOD2q8e6nUc6o2Chz0G-1" target="aTOD2q8e6nUc6o2Chz0G-45" edge="1">
          <mxGeometry relative="1" as="geometry" />
        </mxCell>
        <mxCell id="aTOD2q8e6nUc6o2Chz0G-1" value="Admin" style="shape=umlActor;verticalLabelPosition=bottom;verticalAlign=top;html=1;outlineConnect=0;" parent="1" vertex="1">
          <mxGeometry x="100" y="760" width="30" height="60" as="geometry" />
        </mxCell>
        <mxCell id="aTOD2q8e6nUc6o2Chz0G-27" style="edgeStyle=orthogonalEdgeStyle;rounded=0;orthogonalLoop=1;jettySize=auto;html=1;exitX=1;exitY=0.3333333333333333;exitDx=0;exitDy=0;exitPerimeter=0;entryX=0;entryY=0.5;entryDx=0;entryDy=0;curved=1;" parent="1" source="aTOD2q8e6nUc6o2Chz0G-3" target="aTOD2q8e6nUc6o2Chz0G-18" edge="1">
          <mxGeometry relative="1" as="geometry" />
        </mxCell>
        <mxCell id="aTOD2q8e6nUc6o2Chz0G-3" value="Librarian" style="shape=umlActor;verticalLabelPosition=bottom;verticalAlign=top;html=1;outlineConnect=0;" parent="1" vertex="1">
          <mxGeometry x="220" y="450" width="30" height="60" as="geometry" />
        </mxCell>
        <mxCell id="aTOD2q8e6nUc6o2Chz0G-13" style="edgeStyle=orthogonalEdgeStyle;rounded=0;orthogonalLoop=1;jettySize=auto;html=1;exitX=1;exitY=0.3333333333333333;exitDx=0;exitDy=0;exitPerimeter=0;entryX=0;entryY=0.5;entryDx=0;entryDy=0;curved=1;" parent="1" source="aTOD2q8e6nUc6o2Chz0G-4" target="aTOD2q8e6nUc6o2Chz0G-9" edge="1">
          <mxGeometry relative="1" as="geometry" />
        </mxCell>
        <mxCell id="aTOD2q8e6nUc6o2Chz0G-28" style="edgeStyle=orthogonalEdgeStyle;rounded=0;orthogonalLoop=1;jettySize=auto;html=1;exitX=1;exitY=0.3333333333333333;exitDx=0;exitDy=0;exitPerimeter=0;entryX=0;entryY=0.5;entryDx=0;entryDy=0;curved=1;" parent="1" source="aTOD2q8e6nUc6o2Chz0G-4" target="aTOD2q8e6nUc6o2Chz0G-11" edge="1">
          <mxGeometry relative="1" as="geometry" />
        </mxCell>
        <mxCell id="aTOD2q8e6nUc6o2Chz0G-4" value="Reader" style="shape=umlActor;verticalLabelPosition=bottom;verticalAlign=top;html=1;outlineConnect=0;" parent="1" vertex="1">
          <mxGeometry x="220" y="140" width="30" height="60" as="geometry" />
        </mxCell>
        <mxCell id="aTOD2q8e6nUc6o2Chz0G-9" value="View available books." style="ellipse;whiteSpace=wrap;html=1;" parent="1" vertex="1">
          <mxGeometry x="590" y="320" width="140" height="70" as="geometry" />
        </mxCell>
        <mxCell id="aTOD2q8e6nUc6o2Chz0G-11" value="Registration in the system." style="ellipse;whiteSpace=wrap;html=1;" parent="1" vertex="1">
          <mxGeometry x="590" width="140" height="70" as="geometry" />
        </mxCell>
        <mxCell id="aTOD2q8e6nUc6o2Chz0G-14" value="Book reservation." style="ellipse;whiteSpace=wrap;html=1;" parent="1" vertex="1">
          <mxGeometry x="590" y="220" width="140" height="70" as="geometry" />
        </mxCell>
        <mxCell id="aTOD2q8e6nUc6o2Chz0G-48" style="edgeStyle=orthogonalEdgeStyle;rounded=0;orthogonalLoop=1;jettySize=auto;html=1;exitX=0;exitY=0.5;exitDx=0;exitDy=0;entryX=1;entryY=0.5;entryDx=0;entryDy=0;curved=1;dashed=1;dashPattern=8 8;" parent="1" source="XtE_IcHsf6wSJMcnNELx-1" target="aTOD2q8e6nUc6o2Chz0G-14" edge="1">
          <mxGeometry relative="1" as="geometry" />
        </mxCell>
        <mxCell id="aTOD2q8e6nUc6o2Chz0G-49" value="extend" style="edgeLabel;html=1;align=center;verticalAlign=middle;resizable=0;points=[];" parent="aTOD2q8e6nUc6o2Chz0G-48" vertex="1" connectable="0">
          <mxGeometry x="-0.302" y="10" relative="1" as="geometry">
            <mxPoint as="offset" />
          </mxGeometry>
        </mxCell>
        <mxCell id="aTOD2q8e6nUc6o2Chz0G-15" value="Cancellation of reservation." style="ellipse;whiteSpace=wrap;html=1;" parent="1" vertex="1">
          <mxGeometry x="800" y="170" width="140" height="70" as="geometry" />
        </mxCell>
        <mxCell id="aTOD2q8e6nUc6o2Chz0G-18" value="Adding/removing books." style="ellipse;whiteSpace=wrap;html=1;" parent="1" vertex="1">
          <mxGeometry x="590" y="410" width="140" height="70" as="geometry" />
        </mxCell>
        <mxCell id="aTOD2q8e6nUc6o2Chz0G-33" value="Branch management." style="ellipse;whiteSpace=wrap;html=1;" parent="1" vertex="1">
          <mxGeometry x="300" y="730" width="140" height="70" as="geometry" />
        </mxCell>
        <mxCell id="aTOD2q8e6nUc6o2Chz0G-35" value="viewing analytics" style="ellipse;whiteSpace=wrap;html=1;" parent="1" vertex="1">
          <mxGeometry x="530" y="675" width="140" height="70" as="geometry" />
        </mxCell>
        <mxCell id="aTOD2q8e6nUc6o2Chz0G-39" style="edgeStyle=orthogonalEdgeStyle;rounded=0;orthogonalLoop=1;jettySize=auto;html=1;exitX=0;exitY=0.5;exitDx=0;exitDy=0;entryX=1;entryY=0.5;entryDx=0;entryDy=0;curved=1;dashed=1;dashPattern=8 8;" parent="1" source="aTOD2q8e6nUc6o2Chz0G-36" target="aTOD2q8e6nUc6o2Chz0G-35" edge="1">
          <mxGeometry relative="1" as="geometry">
            <mxPoint x="470" y="770" as="targetPoint" />
          </mxGeometry>
        </mxCell>
        <mxCell id="aTOD2q8e6nUc6o2Chz0G-42" value="include" style="edgeLabel;html=1;align=center;verticalAlign=middle;resizable=0;points=[];" parent="aTOD2q8e6nUc6o2Chz0G-39" vertex="1" connectable="0">
          <mxGeometry x="0.0215" y="1" relative="1" as="geometry">
            <mxPoint as="offset" />
          </mxGeometry>
        </mxCell>
        <mxCell id="aTOD2q8e6nUc6o2Chz0G-36" value="data on branches." style="ellipse;whiteSpace=wrap;html=1;" parent="1" vertex="1">
          <mxGeometry x="720" y="730" width="140" height="70" as="geometry" />
        </mxCell>
        <mxCell id="aTOD2q8e6nUc6o2Chz0G-45" value="Account management." style="ellipse;whiteSpace=wrap;html=1;" parent="1" vertex="1">
          <mxGeometry x="280" y="840" width="140" height="70" as="geometry" />
        </mxCell>
        <mxCell id="XtE_IcHsf6wSJMcnNELx-1" value="Search for books." style="ellipse;whiteSpace=wrap;html=1;" vertex="1" parent="1">
          <mxGeometry x="800" y="280" width="140" height="70" as="geometry" />
        </mxCell>
        <mxCell id="XtE_IcHsf6wSJMcnNELx-3" value="View your booking history." style="ellipse;whiteSpace=wrap;html=1;" vertex="1" parent="1">
          <mxGeometry x="590" y="120" width="140" height="70" as="geometry" />
        </mxCell>
        <mxCell id="XtE_IcHsf6wSJMcnNELx-7" style="edgeStyle=orthogonalEdgeStyle;rounded=0;orthogonalLoop=1;jettySize=auto;html=1;entryX=0;entryY=0.5;entryDx=0;entryDy=0;curved=1;exitX=1;exitY=0.3333333333333333;exitDx=0;exitDy=0;exitPerimeter=0;" edge="1" parent="1" source="aTOD2q8e6nUc6o2Chz0G-4" target="XtE_IcHsf6wSJMcnNELx-3">
          <mxGeometry relative="1" as="geometry">
            <mxPoint x="200" y="150" as="sourcePoint" />
            <mxPoint x="469.48" y="-25.52" as="targetPoint" />
          </mxGeometry>
        </mxCell>
        <mxCell id="XtE_IcHsf6wSJMcnNELx-10" style="edgeStyle=orthogonalEdgeStyle;rounded=0;orthogonalLoop=1;jettySize=auto;html=1;exitX=1;exitY=0.3333333333333333;exitDx=0;exitDy=0;exitPerimeter=0;entryX=0;entryY=0.5;entryDx=0;entryDy=0;curved=1;" edge="1" parent="1" source="aTOD2q8e6nUc6o2Chz0G-4" target="aTOD2q8e6nUc6o2Chz0G-14">
          <mxGeometry relative="1" as="geometry">
            <mxPoint x="230" y="190" as="sourcePoint" />
            <mxPoint x="410" y="25" as="targetPoint" />
          </mxGeometry>
        </mxCell>
        <mxCell id="XtE_IcHsf6wSJMcnNELx-11" value="Input data" style="ellipse;whiteSpace=wrap;html=1;" vertex="1" parent="1">
          <mxGeometry x="800" y="-50" width="140" height="70" as="geometry" />
        </mxCell>
        <mxCell id="XtE_IcHsf6wSJMcnNELx-12" value="uniqueness check" style="ellipse;whiteSpace=wrap;html=1;" vertex="1" parent="1">
          <mxGeometry x="800" y="60" width="140" height="70" as="geometry" />
        </mxCell>
        <mxCell id="XtE_IcHsf6wSJMcnNELx-13" style="edgeStyle=orthogonalEdgeStyle;rounded=0;orthogonalLoop=1;jettySize=auto;html=1;exitX=0;exitY=0.5;exitDx=0;exitDy=0;entryX=1;entryY=0.5;entryDx=0;entryDy=0;curved=1;dashed=1;dashPattern=8 8;" edge="1" parent="1" source="XtE_IcHsf6wSJMcnNELx-11" target="aTOD2q8e6nUc6o2Chz0G-11">
          <mxGeometry relative="1" as="geometry">
            <mxPoint x="775" y="-290" as="sourcePoint" />
            <mxPoint x="665" y="-110" as="targetPoint" />
          </mxGeometry>
        </mxCell>
        <mxCell id="XtE_IcHsf6wSJMcnNELx-14" value="include" style="edgeLabel;html=1;align=center;verticalAlign=middle;resizable=0;points=[];" vertex="1" connectable="0" parent="XtE_IcHsf6wSJMcnNELx-13">
          <mxGeometry x="-0.0571" y="1" relative="1" as="geometry">
            <mxPoint as="offset" />
          </mxGeometry>
        </mxCell>
        <mxCell id="XtE_IcHsf6wSJMcnNELx-15" style="edgeStyle=orthogonalEdgeStyle;rounded=0;orthogonalLoop=1;jettySize=auto;html=1;exitX=0;exitY=0.5;exitDx=0;exitDy=0;entryX=1;entryY=0.5;entryDx=0;entryDy=0;curved=1;dashed=1;dashPattern=8 8;" edge="1" parent="1" source="XtE_IcHsf6wSJMcnNELx-12" target="aTOD2q8e6nUc6o2Chz0G-11">
          <mxGeometry relative="1" as="geometry">
            <mxPoint x="800" y="-40" as="sourcePoint" />
            <mxPoint x="690" y="30" as="targetPoint" />
          </mxGeometry>
        </mxCell>
        <mxCell id="XtE_IcHsf6wSJMcnNELx-16" value="include" style="edgeLabel;html=1;align=center;verticalAlign=middle;resizable=0;points=[];" vertex="1" connectable="0" parent="XtE_IcHsf6wSJMcnNELx-15">
          <mxGeometry x="0.1399" y="4" relative="1" as="geometry">
            <mxPoint as="offset" />
          </mxGeometry>
        </mxCell>
        <mxCell id="XtE_IcHsf6wSJMcnNELx-17" style="edgeStyle=orthogonalEdgeStyle;rounded=0;orthogonalLoop=1;jettySize=auto;html=1;exitX=0;exitY=0.5;exitDx=0;exitDy=0;entryX=1;entryY=0.5;entryDx=0;entryDy=0;curved=1;dashed=1;dashPattern=8 8;" edge="1" parent="1" source="XtE_IcHsf6wSJMcnNELx-1" target="aTOD2q8e6nUc6o2Chz0G-9">
          <mxGeometry relative="1" as="geometry">
            <mxPoint x="755" y="120" as="sourcePoint" />
            <mxPoint x="685" y="60" as="targetPoint" />
          </mxGeometry>
        </mxCell>
        <mxCell id="XtE_IcHsf6wSJMcnNELx-18" value="include" style="edgeLabel;html=1;align=center;verticalAlign=middle;resizable=0;points=[];" vertex="1" connectable="0" parent="XtE_IcHsf6wSJMcnNELx-17">
          <mxGeometry x="0.1399" y="4" relative="1" as="geometry">
            <mxPoint as="offset" />
          </mxGeometry>
        </mxCell>
        <mxCell id="XtE_IcHsf6wSJMcnNELx-21" style="edgeStyle=orthogonalEdgeStyle;rounded=0;orthogonalLoop=1;jettySize=auto;html=1;exitX=0;exitY=0.5;exitDx=0;exitDy=0;entryX=1;entryY=0.5;entryDx=0;entryDy=0;curved=1;dashed=1;dashPattern=8 8;" edge="1" parent="1" source="aTOD2q8e6nUc6o2Chz0G-15" target="aTOD2q8e6nUc6o2Chz0G-14">
          <mxGeometry relative="1" as="geometry">
            <mxPoint x="860" y="325" as="sourcePoint" />
            <mxPoint x="730" y="395" as="targetPoint" />
          </mxGeometry>
        </mxCell>
        <mxCell id="XtE_IcHsf6wSJMcnNELx-22" value="extend" style="edgeLabel;html=1;align=center;verticalAlign=middle;resizable=0;points=[];" vertex="1" connectable="0" parent="XtE_IcHsf6wSJMcnNELx-21">
          <mxGeometry x="-0.302" y="10" relative="1" as="geometry">
            <mxPoint as="offset" />
          </mxGeometry>
        </mxCell>
        <mxCell id="XtE_IcHsf6wSJMcnNELx-24" value="Accounting for issue and return" style="ellipse;whiteSpace=wrap;html=1;" vertex="1" parent="1">
          <mxGeometry x="460" y="480" width="140" height="70" as="geometry" />
        </mxCell>
        <mxCell id="XtE_IcHsf6wSJMcnNELx-25" value="Catalog management." style="ellipse;whiteSpace=wrap;html=1;" vertex="1" parent="1">
          <mxGeometry x="300" y="605" width="140" height="70" as="geometry" />
        </mxCell>
        <mxCell id="XtE_IcHsf6wSJMcnNELx-26" value="View active bookings." style="ellipse;whiteSpace=wrap;html=1;" vertex="1" parent="1">
          <mxGeometry x="460" y="560" width="140" height="70" as="geometry" />
        </mxCell>
        <mxCell id="XtE_IcHsf6wSJMcnNELx-28" style="edgeStyle=orthogonalEdgeStyle;rounded=0;orthogonalLoop=1;jettySize=auto;html=1;exitX=1;exitY=0.3333333333333333;exitDx=0;exitDy=0;exitPerimeter=0;entryX=0;entryY=0.5;entryDx=0;entryDy=0;curved=1;" edge="1" parent="1" source="aTOD2q8e6nUc6o2Chz0G-3" target="aTOD2q8e6nUc6o2Chz0G-9">
          <mxGeometry relative="1" as="geometry">
            <mxPoint x="200" y="160" as="sourcePoint" />
            <mxPoint x="590" y="255" as="targetPoint" />
          </mxGeometry>
        </mxCell>
        <mxCell id="XtE_IcHsf6wSJMcnNELx-29" style="edgeStyle=orthogonalEdgeStyle;rounded=0;orthogonalLoop=1;jettySize=auto;html=1;exitX=1;exitY=0.5;exitDx=0;exitDy=0;entryX=0;entryY=0.5;entryDx=0;entryDy=0;startArrow=classic;startFill=1;endArrow=none;endFill=0;dashed=1;dashPattern=8 8;curved=1;" edge="1" parent="1" source="aTOD2q8e6nUc6o2Chz0G-33" target="aTOD2q8e6nUc6o2Chz0G-35">
          <mxGeometry relative="1" as="geometry">
            <mxPoint x="730" y="395" as="sourcePoint" />
            <mxPoint x="837" y="545" as="targetPoint" />
          </mxGeometry>
        </mxCell>
        <mxCell id="XtE_IcHsf6wSJMcnNELx-30" value="extend" style="edgeLabel;html=1;align=center;verticalAlign=middle;resizable=0;points=[];" vertex="1" connectable="0" parent="XtE_IcHsf6wSJMcnNELx-29">
          <mxGeometry x="-0.0991" relative="1" as="geometry">
            <mxPoint as="offset" />
          </mxGeometry>
        </mxCell>
        <mxCell id="XtE_IcHsf6wSJMcnNELx-32" style="edgeStyle=orthogonalEdgeStyle;rounded=0;orthogonalLoop=1;jettySize=auto;html=1;exitX=1;exitY=0.3333333333333333;exitDx=0;exitDy=0;exitPerimeter=0;entryX=0;entryY=0.5;entryDx=0;entryDy=0;curved=1;" edge="1" parent="1" source="aTOD2q8e6nUc6o2Chz0G-3" target="XtE_IcHsf6wSJMcnNELx-24">
          <mxGeometry relative="1" as="geometry">
            <mxPoint x="120" y="510" as="sourcePoint" />
            <mxPoint x="320" y="540" as="targetPoint" />
          </mxGeometry>
        </mxCell>
        <mxCell id="XtE_IcHsf6wSJMcnNELx-33" style="edgeStyle=orthogonalEdgeStyle;rounded=0;orthogonalLoop=1;jettySize=auto;html=1;exitX=1;exitY=0.3333333333333333;exitDx=0;exitDy=0;exitPerimeter=0;entryX=0;entryY=0.5;entryDx=0;entryDy=0;curved=1;" edge="1" parent="1" source="aTOD2q8e6nUc6o2Chz0G-1" target="XtE_IcHsf6wSJMcnNELx-25">
          <mxGeometry relative="1" as="geometry">
            <mxPoint x="190" y="405" as="sourcePoint" />
            <mxPoint x="390" y="435" as="targetPoint" />
          </mxGeometry>
        </mxCell>
        <mxCell id="XtE_IcHsf6wSJMcnNELx-34" style="edgeStyle=orthogonalEdgeStyle;rounded=0;orthogonalLoop=1;jettySize=auto;html=1;exitX=1;exitY=0.3333333333333333;exitDx=0;exitDy=0;exitPerimeter=0;entryX=0;entryY=0.5;entryDx=0;entryDy=0;curved=1;" edge="1" parent="1" source="aTOD2q8e6nUc6o2Chz0G-3" target="XtE_IcHsf6wSJMcnNELx-25">
          <mxGeometry relative="1" as="geometry">
            <mxPoint x="200" y="415" as="sourcePoint" />
            <mxPoint x="400" y="445" as="targetPoint" />
          </mxGeometry>
        </mxCell>
        <mxCell id="XtE_IcHsf6wSJMcnNELx-35" style="edgeStyle=orthogonalEdgeStyle;rounded=0;orthogonalLoop=1;jettySize=auto;html=1;exitX=1;exitY=0.3333333333333333;exitDx=0;exitDy=0;exitPerimeter=0;entryX=0;entryY=0.5;entryDx=0;entryDy=0;curved=1;" edge="1" parent="1" source="aTOD2q8e6nUc6o2Chz0G-3" target="XtE_IcHsf6wSJMcnNELx-26">
          <mxGeometry relative="1" as="geometry">
            <mxPoint x="210" y="425" as="sourcePoint" />
            <mxPoint x="410" y="455" as="targetPoint" />
          </mxGeometry>
        </mxCell>
      </root>
    </mxGraphModel>
  </diagram>
  <diagram id="W2a2jg87nv4w9XzV8dlk" name="Страница — 2">
    <mxGraphModel dx="1766" dy="543" grid="1" gridSize="10" guides="1" tooltips="1" connect="1" arrows="1" fold="1" page="1" pageScale="1" pageWidth="827" pageHeight="1169" math="0" shadow="0">
      <root>
        <mxCell id="0" />
        <mxCell id="1" parent="0" />
        <mxCell id="4dUe83G2dAQOXLaseVXt-3" style="edgeStyle=orthogonalEdgeStyle;rounded=0;orthogonalLoop=1;jettySize=auto;html=1;exitX=0.5;exitY=1;exitDx=0;exitDy=0;entryX=0.5;entryY=0;entryDx=0;entryDy=0;" edge="1" parent="1" source="4dUe83G2dAQOXLaseVXt-1" target="4dUe83G2dAQOXLaseVXt-2">
          <mxGeometry relative="1" as="geometry" />
        </mxCell>
        <mxCell id="4dUe83G2dAQOXLaseVXt-4" value="Vybor tovarov" style="edgeLabel;html=1;align=center;verticalAlign=middle;resizable=0;points=[];" vertex="1" connectable="0" parent="4dUe83G2dAQOXLaseVXt-3">
          <mxGeometry x="-0.1259" relative="1" as="geometry">
            <mxPoint as="offset" />
          </mxGeometry>
        </mxCell>
        <mxCell id="4dUe83G2dAQOXLaseVXt-1" value="" style="shape=ellipse;html=1;fillColor=strokeColor;fontSize=18;fontColor=#ffffff;" vertex="1" parent="1">
          <mxGeometry x="-450" y="90" width="40" height="40" as="geometry" />
        </mxCell>
        <mxCell id="4dUe83G2dAQOXLaseVXt-6" style="edgeStyle=orthogonalEdgeStyle;rounded=0;orthogonalLoop=1;jettySize=auto;html=1;exitX=0.5;exitY=1;exitDx=0;exitDy=0;entryX=0.5;entryY=0;entryDx=0;entryDy=0;" edge="1" parent="1" source="4dUe83G2dAQOXLaseVXt-2" target="4dUe83G2dAQOXLaseVXt-5">
          <mxGeometry relative="1" as="geometry" />
        </mxCell>
        <mxCell id="4dUe83G2dAQOXLaseVXt-7" value="Zapalnenye dadnyh&lt;div&gt;[FIO, Addres, Telefon]&lt;/div&gt;" style="edgeLabel;html=1;align=center;verticalAlign=middle;resizable=0;points=[];" vertex="1" connectable="0" parent="4dUe83G2dAQOXLaseVXt-6">
          <mxGeometry x="-0.2118" relative="1" as="geometry">
            <mxPoint as="offset" />
          </mxGeometry>
        </mxCell>
        <mxCell id="4dUe83G2dAQOXLaseVXt-2" value="Dobavlenye v korzynu" style="shape=rect;rounded=1;html=1;whiteSpace=wrap;align=center;" vertex="1" parent="1">
          <mxGeometry x="-480" y="170" width="100" height="40" as="geometry" />
        </mxCell>
        <mxCell id="4dUe83G2dAQOXLaseVXt-9" style="edgeStyle=orthogonalEdgeStyle;rounded=0;orthogonalLoop=1;jettySize=auto;html=1;exitX=0.5;exitY=1;exitDx=0;exitDy=0;entryX=0.5;entryY=0;entryDx=0;entryDy=0;" edge="1" parent="1" source="4dUe83G2dAQOXLaseVXt-5" target="4dUe83G2dAQOXLaseVXt-8">
          <mxGeometry relative="1" as="geometry" />
        </mxCell>
        <mxCell id="4dUe83G2dAQOXLaseVXt-10" value="pokupatel oplacyvaet&lt;div&gt;[nomer carty]&lt;/div&gt;" style="edgeLabel;html=1;align=center;verticalAlign=middle;resizable=0;points=[];" vertex="1" connectable="0" parent="4dUe83G2dAQOXLaseVXt-9">
          <mxGeometry x="-0.171" relative="1" as="geometry">
            <mxPoint as="offset" />
          </mxGeometry>
        </mxCell>
        <mxCell id="4dUe83G2dAQOXLaseVXt-5" value="Oformlenye zakazov" style="shape=rect;rounded=1;html=1;whiteSpace=wrap;align=center;" vertex="1" parent="1">
          <mxGeometry x="-480" y="280" width="100" height="40" as="geometry" />
        </mxCell>
        <mxCell id="4dUe83G2dAQOXLaseVXt-11" style="edgeStyle=orthogonalEdgeStyle;rounded=0;orthogonalLoop=1;jettySize=auto;html=1;exitX=1;exitY=0.5;exitDx=0;exitDy=0;entryX=1;entryY=0.5;entryDx=0;entryDy=0;" edge="1" parent="1" source="4dUe83G2dAQOXLaseVXt-13" target="4dUe83G2dAQOXLaseVXt-5">
          <mxGeometry relative="1" as="geometry">
            <Array as="points">
              <mxPoint x="-290" y="510" />
              <mxPoint x="-290" y="300" />
            </Array>
          </mxGeometry>
        </mxCell>
        <mxCell id="4dUe83G2dAQOXLaseVXt-12" value="Olata ne proshla" style="edgeLabel;html=1;align=center;verticalAlign=middle;resizable=0;points=[];" vertex="1" connectable="0" parent="4dUe83G2dAQOXLaseVXt-11">
          <mxGeometry x="-0.0646" y="-2" relative="1" as="geometry">
            <mxPoint y="-4" as="offset" />
          </mxGeometry>
        </mxCell>
        <mxCell id="4dUe83G2dAQOXLaseVXt-14" style="edgeStyle=orthogonalEdgeStyle;rounded=0;orthogonalLoop=1;jettySize=auto;html=1;exitX=0.5;exitY=1;exitDx=0;exitDy=0;entryX=0.5;entryY=0;entryDx=0;entryDy=0;" edge="1" parent="1" source="4dUe83G2dAQOXLaseVXt-8" target="4dUe83G2dAQOXLaseVXt-13">
          <mxGeometry relative="1" as="geometry" />
        </mxCell>
        <mxCell id="4dUe83G2dAQOXLaseVXt-15" value="Proverka platega" style="edgeLabel;html=1;align=center;verticalAlign=middle;resizable=0;points=[];" vertex="1" connectable="0" parent="4dUe83G2dAQOXLaseVXt-14">
          <mxGeometry x="-0.1286" relative="1" as="geometry">
            <mxPoint as="offset" />
          </mxGeometry>
        </mxCell>
        <mxCell id="4dUe83G2dAQOXLaseVXt-8" value="Oplata zakaza" style="shape=rect;rounded=1;html=1;whiteSpace=wrap;align=center;" vertex="1" parent="1">
          <mxGeometry x="-480" y="390" width="100" height="40" as="geometry" />
        </mxCell>
        <mxCell id="4dUe83G2dAQOXLaseVXt-17" style="edgeStyle=orthogonalEdgeStyle;rounded=0;orthogonalLoop=1;jettySize=auto;html=1;exitX=0.5;exitY=1;exitDx=0;exitDy=0;entryX=0.5;entryY=0;entryDx=0;entryDy=0;" edge="1" parent="1" source="4dUe83G2dAQOXLaseVXt-13" target="4dUe83G2dAQOXLaseVXt-16">
          <mxGeometry relative="1" as="geometry" />
        </mxCell>
        <mxCell id="4dUe83G2dAQOXLaseVXt-18" value="Zakaz obrabatyvaetsa na sklade" style="edgeLabel;html=1;align=center;verticalAlign=middle;resizable=0;points=[];" vertex="1" connectable="0" parent="4dUe83G2dAQOXLaseVXt-17">
          <mxGeometry x="-0.2743" y="1" relative="1" as="geometry">
            <mxPoint as="offset" />
          </mxGeometry>
        </mxCell>
        <mxCell id="4dUe83G2dAQOXLaseVXt-13" value="Potvergdenye oplaty" style="shape=rect;rounded=1;html=1;whiteSpace=wrap;align=center;" vertex="1" parent="1">
          <mxGeometry x="-480" y="490" width="100" height="40" as="geometry" />
        </mxCell>
        <mxCell id="4dUe83G2dAQOXLaseVXt-20" style="edgeStyle=orthogonalEdgeStyle;rounded=0;orthogonalLoop=1;jettySize=auto;html=1;exitX=0.5;exitY=1;exitDx=0;exitDy=0;" edge="1" parent="1" source="4dUe83G2dAQOXLaseVXt-16" target="4dUe83G2dAQOXLaseVXt-19">
          <mxGeometry relative="1" as="geometry" />
        </mxCell>
        <mxCell id="4dUe83G2dAQOXLaseVXt-21" value="zakaz otpravlaetsa na dostavku" style="edgeLabel;html=1;align=center;verticalAlign=middle;resizable=0;points=[];" vertex="1" connectable="0" parent="4dUe83G2dAQOXLaseVXt-20">
          <mxGeometry x="-0.1475" y="1" relative="1" as="geometry">
            <mxPoint as="offset" />
          </mxGeometry>
        </mxCell>
        <mxCell id="4dUe83G2dAQOXLaseVXt-16" value="Obrabotka zakaza" style="shape=rect;rounded=1;html=1;whiteSpace=wrap;align=center;" vertex="1" parent="1">
          <mxGeometry x="-480" y="585" width="100" height="40" as="geometry" />
        </mxCell>
        <mxCell id="4dUe83G2dAQOXLaseVXt-19" value="Otpravka zakaza" style="shape=rect;rounded=1;html=1;whiteSpace=wrap;align=center;" vertex="1" parent="1">
          <mxGeometry x="-480" y="680" width="100" height="40" as="geometry" />
        </mxCell>
        <mxCell id="4dUe83G2dAQOXLaseVXt-22" value="" style="shape=mxgraph.sysml.actFinal;html=1;verticalLabelPosition=bottom;labelBackgroundColor=#ffffff;verticalAlign=top;" vertex="1" parent="1">
          <mxGeometry x="-450" y="780" width="40" height="40" as="geometry" />
        </mxCell>
        <mxCell id="4dUe83G2dAQOXLaseVXt-23" style="edgeStyle=orthogonalEdgeStyle;rounded=0;orthogonalLoop=1;jettySize=auto;html=1;exitX=0.5;exitY=1;exitDx=0;exitDy=0;entryX=0.5;entryY=0;entryDx=0;entryDy=0;entryPerimeter=0;" edge="1" parent="1" source="4dUe83G2dAQOXLaseVXt-19" target="4dUe83G2dAQOXLaseVXt-22">
          <mxGeometry relative="1" as="geometry" />
        </mxCell>
      </root>
    </mxGraphModel>
  </diagram>
</mxfile>
